<svg xmlns="http://www.w3.org/2000/svg" viewBox="0 0 300 34.737">
<path fill="currentColor" d=" M 26.83 23.953 L 26.83 23.953 L 26.83 23.953 Q 26.83 26.035 26.035 27.86 L 26.035 27.86 L 26.035 27.86 Q 25.24 29.684 23.871 31.053 L 23.871 31.053 L 23.871 31.053 Q 22.503 32.421 20.678 33.216 L 20.678 33.216 L 20.678 33.216 Q 18.854 34.012 16.772 34.012 L 16.772 34.012 L 0 34.012 L 0 0.468 L 16.772 0.468 L 16.772 0.468 Q 18.854 0.468 20.678 1.263 L 20.678 1.263 L 20.678 1.263 Q 22.503 2.058 23.871 3.427 L 23.871 3.427 L 23.871 3.427 Q 25.24 4.795 26.035 6.62 L 26.035 6.62 L 26.035 6.62 Q 26.83 8.444 26.83 10.526 L 26.83 10.526 L 26.83 10.526 Q 26.83 11.462 26.573 12.444 L 26.573 12.444 L 26.573 12.444 Q 26.316 13.427 25.848 14.339 L 25.848 14.339 L 25.848 14.339 Q 25.38 15.251 24.725 16 L 24.725 16 L 24.725 16 Q 24.07 16.749 23.275 17.24 L 23.275 17.24 L 23.275 17.24 Q 24.094 17.684 24.749 18.444 L 24.749 18.444 L 24.749 18.444 Q 25.404 19.205 25.871 20.117 L 25.871 20.117 L 25.871 20.117 Q 26.339 21.029 26.585 22.023 L 26.585 22.023 L 26.585 22.023 Q 26.83 23.018 26.83 23.953 Z  M 6.713 20.608 L 6.713 27.298 L 16.772 27.298 L 16.772 27.298 Q 17.474 27.298 18.082 27.041 L 18.082 27.041 L 18.082 27.041 Q 18.69 26.784 19.146 26.327 L 19.146 26.327 L 19.146 26.327 Q 19.602 25.871 19.86 25.263 L 19.86 25.263 L 19.86 25.263 Q 20.117 24.655 20.117 23.953 L 20.117 23.953 L 20.117 23.953 Q 20.117 23.251 19.86 22.643 L 19.86 22.643 L 19.86 22.643 Q 19.602 22.035 19.146 21.579 L 19.146 21.579 L 19.146 21.579 Q 18.69 21.123 18.082 20.865 L 18.082 20.865 L 18.082 20.865 Q 17.474 20.608 16.772 20.608 L 16.772 20.608 L 6.713 20.608 Z  M 6.713 7.181 L 6.713 13.895 L 16.772 13.895 L 16.772 13.895 Q 17.474 13.895 18.082 13.637 L 18.082 13.637 L 18.082 13.637 Q 18.69 13.38 19.146 12.924 L 19.146 12.924 L 19.146 12.924 Q 19.602 12.468 19.86 11.848 L 19.86 11.848 L 19.86 11.848 Q 20.117 11.228 20.117 10.526 L 20.117 10.526 L 20.117 10.526 Q 20.117 9.825 19.86 9.216 L 19.86 9.216 L 19.86 9.216 Q 19.602 8.608 19.146 8.152 L 19.146 8.152 L 19.146 8.152 Q 18.69 7.696 18.082 7.439 L 18.082 7.439 L 18.082 7.439 Q 17.474 7.181 16.772 7.181 L 16.772 7.181 L 6.713 7.181 Z  M 38.222 20.608 L 51.649 20.608 L 51.649 13.895 L 51.649 13.895 Q 51.649 12.515 51.123 11.287 L 51.123 11.287 L 51.123 11.287 Q 50.596 10.058 49.684 9.146 L 49.684 9.146 L 49.684 9.146 Q 48.772 8.234 47.544 7.708 L 47.544 7.708 L 47.544 7.708 Q 46.316 7.181 44.936 7.181 L 44.936 7.181 L 44.936 7.181 Q 43.556 7.181 42.327 7.708 L 42.327 7.708 L 42.327 7.708 Q 41.099 8.234 40.187 9.146 L 40.187 9.146 L 40.187 9.146 Q 39.275 10.058 38.749 11.287 L 38.749 11.287 L 38.749 11.287 Q 38.222 12.515 38.222 13.895 L 38.222 13.895 L 38.222 20.608 Z  M 58.363 13.895 L 58.363 34.012 L 51.649 34.012 L 51.649 27.298 L 38.222 27.298 L 38.222 34.012 L 31.532 34.012 L 31.532 13.895 L 31.532 13.895 Q 31.532 11.111 32.585 8.667 L 32.585 8.667 L 32.585 8.667 Q 33.637 6.222 35.45 4.398 L 35.45 4.398 L 35.45 4.398 Q 37.263 2.573 39.708 1.52 L 39.708 1.52 L 39.708 1.52 Q 42.152 0.468 44.936 0.468 L 44.936 0.468 L 44.936 0.468 Q 47.719 0.468 50.164 1.52 L 50.164 1.52 L 50.164 1.52 Q 52.608 2.573 54.433 4.398 L 54.433 4.398 L 54.433 4.398 Q 56.257 6.222 57.31 8.667 L 57.31 8.667 L 57.31 8.667 Q 58.363 11.111 58.363 13.895 L 58.363 13.895 Z  M 77.614 7.181 L 70.901 7.181 L 70.901 20.608 L 77.614 20.608 L 77.614 20.608 Q 78.994 20.608 80.211 20.082 L 80.211 20.082 L 80.211 20.082 Q 81.427 19.556 82.339 18.643 L 82.339 18.643 L 82.339 18.643 Q 83.251 17.731 83.778 16.503 L 83.778 16.503 L 83.778 16.503 Q 84.304 15.275 84.304 13.895 L 84.304 13.895 L 84.304 13.895 Q 84.304 12.515 83.778 11.287 L 83.778 11.287 L 83.778 11.287 Q 83.251 10.058 82.339 9.146 L 82.339 9.146 L 82.339 9.146 Q 81.427 8.234 80.211 7.708 L 80.211 7.708 L 80.211 7.708 Q 78.994 7.181 77.614 7.181 L 77.614 7.181 Z  M 70.901 27.298 L 70.901 34.012 L 64.187 34.012 L 64.187 0.468 L 77.614 0.468 L 77.614 0.468 Q 79.462 0.468 81.17 0.947 L 81.17 0.947 L 81.17 0.947 Q 82.877 1.427 84.363 2.304 L 84.363 2.304 L 84.363 2.304 Q 85.848 3.181 87.076 4.409 L 87.076 4.409 L 87.076 4.409 Q 88.304 5.637 89.181 7.135 L 89.181 7.135 L 89.181 7.135 Q 90.058 8.632 90.538 10.339 L 90.538 10.339 L 90.538 10.339 Q 91.018 12.047 91.018 13.895 L 91.018 13.895 L 91.018 13.895 Q 91.018 15.626 90.585 17.263 L 90.585 17.263 L 90.585 17.263 Q 90.152 18.901 89.345 20.374 L 89.345 20.374 L 89.345 20.374 Q 88.538 21.848 87.368 23.088 L 87.368 23.088 L 87.368 23.088 Q 86.199 24.327 84.749 25.24 L 84.749 25.24 L 88.468 34.012 L 81.333 34.012 L 78.409 27.251 L 70.901 27.298 Z  M 122.246 23.953 L 122.246 23.953 L 122.246 23.953 Q 122.246 26.035 121.45 27.86 L 121.45 27.86 L 121.45 27.86 Q 120.655 29.684 119.287 31.053 L 119.287 31.053 L 119.287 31.053 Q 117.918 32.421 116.094 33.216 L 116.094 33.216 L 116.094 33.216 Q 114.269 34.012 112.187 34.012 L 112.187 34.012 L 95.415 34.012 L 95.415 0.468 L 112.187 0.468 L 112.187 0.468 Q 114.269 0.468 116.094 1.263 L 116.094 1.263 L 116.094 1.263 Q 117.918 2.058 119.287 3.427 L 119.287 3.427 L 119.287 3.427 Q 120.655 4.795 121.45 6.62 L 121.45 6.62 L 121.45 6.62 Q 122.246 8.444 122.246 10.526 L 122.246 10.526 L 122.246 10.526 Q 122.246 11.462 121.988 12.444 L 121.988 12.444 L 121.988 12.444 Q 121.731 13.427 121.263 14.339 L 121.263 14.339 L 121.263 14.339 Q 120.795 15.251 120.14 16 L 120.14 16 L 120.14 16 Q 119.485 16.749 118.69 17.24 L 118.69 17.24 L 118.69 17.24 Q 119.509 17.684 120.164 18.444 L 120.164 18.444 L 120.164 18.444 Q 120.819 19.205 121.287 20.117 L 121.287 20.117 L 121.287 20.117 Q 121.754 21.029 122 22.023 L 122 22.023 L 122 22.023 Q 122.246 23.018 122.246 23.953 Z  M 102.129 20.608 L 102.129 27.298 L 112.187 27.298 L 112.187 27.298 Q 112.889 27.298 113.497 27.041 L 113.497 27.041 L 113.497 27.041 Q 114.105 26.784 114.561 26.327 L 114.561 26.327 L 114.561 26.327 Q 115.018 25.871 115.275 25.263 L 115.275 25.263 L 115.275 25.263 Q 115.532 24.655 115.532 23.953 L 115.532 23.953 L 115.532 23.953 Q 115.532 23.251 115.275 22.643 L 115.275 22.643 L 115.275 22.643 Q 115.018 22.035 114.561 21.579 L 114.561 21.579 L 114.561 21.579 Q 114.105 21.123 113.497 20.865 L 113.497 20.865 L 113.497 20.865 Q 112.889 20.608 112.187 20.608 L 112.187 20.608 L 102.129 20.608 Z  M 102.129 7.181 L 102.129 13.895 L 112.187 13.895 L 112.187 13.895 Q 112.889 13.895 113.497 13.637 L 113.497 13.637 L 113.497 13.637 Q 114.105 13.38 114.561 12.924 L 114.561 12.924 L 114.561 12.924 Q 115.018 12.468 115.275 11.848 L 115.275 11.848 L 115.275 11.848 Q 115.532 11.228 115.532 10.526 L 115.532 10.526 L 115.532 10.526 Q 115.532 9.825 115.275 9.216 L 115.275 9.216 L 115.275 9.216 Q 115.018 8.608 114.561 8.152 L 114.561 8.152 L 114.561 8.152 Q 114.105 7.696 113.497 7.439 L 113.497 7.439 L 113.497 7.439 Q 112.889 7.181 112.187 7.181 L 112.187 7.181 L 102.129 7.181 Z  M 133.637 20.608 L 147.064 20.608 L 147.064 13.895 L 147.064 13.895 Q 147.064 12.515 146.538 11.287 L 146.538 11.287 L 146.538 11.287 Q 146.012 10.058 145.099 9.146 L 145.099 9.146 L 145.099 9.146 Q 144.187 8.234 142.959 7.708 L 142.959 7.708 L 142.959 7.708 Q 141.731 7.181 140.351 7.181 L 140.351 7.181 L 140.351 7.181 Q 138.971 7.181 137.743 7.708 L 137.743 7.708 L 137.743 7.708 Q 136.515 8.234 135.602 9.146 L 135.602 9.146 L 135.602 9.146 Q 134.69 10.058 134.164 11.287 L 134.164 11.287 L 134.164 11.287 Q 133.637 12.515 133.637 13.895 L 133.637 13.895 L 133.637 20.608 Z  M 153.778 13.895 L 153.778 34.012 L 147.064 34.012 L 147.064 27.298 L 133.637 27.298 L 133.637 34.012 L 126.947 34.012 L 126.947 13.895 L 126.947 13.895 Q 126.947 11.111 128 8.667 L 128 8.667 L 128 8.667 Q 129.053 6.222 130.865 4.398 L 130.865 4.398 L 130.865 4.398 Q 132.678 2.573 135.123 1.52 L 135.123 1.52 L 135.123 1.52 Q 137.567 0.468 140.351 0.468 L 140.351 0.468 L 140.351 0.468 Q 143.135 0.468 145.579 1.52 L 145.579 1.52 L 145.579 1.52 Q 148.023 2.573 149.848 4.398 L 149.848 4.398 L 149.848 4.398 Q 151.673 6.222 152.725 8.667 L 152.725 8.667 L 152.725 8.667 Q 153.778 11.111 153.778 13.895 L 153.778 13.895 Z  M 173.029 7.181 L 166.316 7.181 L 166.316 20.608 L 173.029 20.608 L 173.029 20.608 Q 174.409 20.608 175.626 20.082 L 175.626 20.082 L 175.626 20.082 Q 176.842 19.556 177.754 18.643 L 177.754 18.643 L 177.754 18.643 Q 178.667 17.731 179.193 16.503 L 179.193 16.503 L 179.193 16.503 Q 179.719 15.275 179.719 13.895 L 179.719 13.895 L 179.719 13.895 Q 179.719 12.515 179.193 11.287 L 179.193 11.287 L 179.193 11.287 Q 178.667 10.058 177.754 9.146 L 177.754 9.146 L 177.754 9.146 Q 176.842 8.234 175.626 7.708 L 175.626 7.708 L 175.626 7.708 Q 174.409 7.181 173.029 7.181 L 173.029 7.181 Z  M 166.316 27.298 L 166.316 34.012 L 159.602 34.012 L 159.602 0.468 L 173.029 0.468 L 173.029 0.468 Q 174.877 0.468 176.585 0.947 L 176.585 0.947 L 176.585 0.947 Q 178.292 1.427 179.778 2.304 L 179.778 2.304 L 179.778 2.304 Q 181.263 3.181 182.491 4.409 L 182.491 4.409 L 182.491 4.409 Q 183.719 5.637 184.596 7.135 L 184.596 7.135 L 184.596 7.135 Q 185.474 8.632 185.953 10.339 L 185.953 10.339 L 185.953 10.339 Q 186.433 12.047 186.433 13.895 L 186.433 13.895 L 186.433 13.895 Q 186.433 15.626 186 17.263 L 186 17.263 L 186 17.263 Q 185.567 18.901 184.76 20.374 L 184.76 20.374 L 184.76 20.374 Q 183.953 21.848 182.784 23.088 L 182.784 23.088 L 182.784 23.088 Q 181.614 24.327 180.164 25.24 L 180.164 25.24 L 183.883 34.012 L 176.749 34.012 L 173.825 27.251 L 166.316 27.298 Z  M 197.544 0.468 L 197.544 34.012 L 190.83 34.012 L 190.83 0.468 L 197.544 0.468 Z  M 226.994 24.725 L 230.55 30.573 L 230.55 30.573 Q 228.211 32.585 225.31 33.661 L 225.31 33.661 L 225.31 33.661 Q 222.409 34.737 219.298 34.737 L 219.298 34.737 L 219.298 34.737 Q 216.912 34.737 214.702 34.117 L 214.702 34.117 L 214.702 34.117 Q 212.491 33.497 210.561 32.363 L 210.561 32.363 L 210.561 32.363 Q 208.632 31.228 207.041 29.637 L 207.041 29.637 L 207.041 29.637 Q 205.45 28.047 204.316 26.117 L 204.316 26.117 L 204.316 26.117 Q 203.181 24.187 202.561 21.977 L 202.561 21.977 L 202.561 21.977 Q 201.942 19.766 201.942 17.38 L 201.942 17.38 L 201.942 17.38 Q 201.942 14.994 202.561 12.772 L 202.561 12.772 L 202.561 12.772 Q 203.181 10.55 204.316 8.62 L 204.316 8.62 L 204.316 8.62 Q 205.45 6.69 207.041 5.099 L 207.041 5.099 L 207.041 5.099 Q 208.632 3.509 210.561 2.374 L 210.561 2.374 L 210.561 2.374 Q 212.491 1.24 214.702 0.62 L 214.702 0.62 L 214.702 0.62 Q 216.912 0 219.298 0 L 219.298 0 L 219.298 0 Q 222.409 0 225.31 1.064 L 225.31 1.064 L 225.31 1.064 Q 228.211 2.129 230.55 4.164 L 230.55 4.164 L 226.994 10.012 L 226.994 10.012 Q 225.52 8.421 223.509 7.567 L 223.509 7.567 L 223.509 7.567 Q 221.497 6.713 219.298 6.713 L 219.298 6.713 L 219.298 6.713 Q 217.076 6.713 215.135 7.556 L 215.135 7.556 L 215.135 7.556 Q 213.193 8.398 211.743 9.836 L 211.743 9.836 L 211.743 9.836 Q 210.292 11.275 209.45 13.228 L 209.45 13.228 L 209.45 13.228 Q 208.608 15.181 208.608 17.38 L 208.608 17.38 L 208.608 17.38 Q 208.608 19.579 209.45 21.509 L 209.45 21.509 L 209.45 21.509 Q 210.292 23.439 211.743 24.889 L 211.743 24.889 L 211.743 24.889 Q 213.193 26.339 215.135 27.181 L 215.135 27.181 L 215.135 27.181 Q 217.076 28.023 219.298 28.023 L 219.298 28.023 L 219.298 28.023 Q 221.497 28.023 223.509 27.17 L 223.509 27.17 L 223.509 27.17 Q 225.52 26.316 226.994 24.725 L 226.994 24.725 Z  M 260.889 0.468 L 260.889 20.608 L 260.889 20.608 Q 260.889 23.392 259.836 25.836 L 259.836 25.836 L 259.836 25.836 Q 258.784 28.281 256.959 30.094 L 256.959 30.094 L 256.959 30.094 Q 255.135 31.906 252.69 32.959 L 252.69 32.959 L 252.69 32.959 Q 250.246 34.012 247.462 34.012 L 247.462 34.012 L 247.462 34.012 Q 244.678 34.012 242.234 32.959 L 242.234 32.959 L 242.234 32.959 Q 239.789 31.906 237.977 30.094 L 237.977 30.094 L 237.977 30.094 Q 236.164 28.281 235.111 25.836 L 235.111 25.836 L 235.111 25.836 Q 234.058 23.392 234.058 20.608 L 234.058 20.608 L 234.058 0.468 L 240.749 0.468 L 240.749 20.608 L 240.749 20.608 Q 240.749 21.988 241.275 23.205 L 241.275 23.205 L 241.275 23.205 Q 241.801 24.421 242.713 25.333 L 242.713 25.333 L 242.713 25.333 Q 243.626 26.246 244.854 26.772 L 244.854 26.772 L 244.854 26.772 Q 246.082 27.298 247.462 27.298 L 247.462 27.298 L 247.462 27.298 Q 248.842 27.298 250.07 26.772 L 250.07 26.772 L 250.07 26.772 Q 251.298 26.246 252.211 25.333 L 252.211 25.333 L 252.211 25.333 Q 253.123 24.421 253.649 23.205 L 253.649 23.205 L 253.649 23.205 Q 254.175 21.988 254.175 20.608 L 254.175 20.608 L 254.175 0.468 L 260.889 0.468 Z  M 300 10.058 L 300 34.012 L 293.31 34.012 L 293.31 10.058 L 293.31 10.058 Q 293.31 9.357 293.041 8.749 L 293.041 8.749 L 293.041 8.749 Q 292.772 8.14 292.316 7.684 L 292.316 7.684 L 292.316 7.684 Q 291.86 7.228 291.251 6.971 L 291.251 6.971 L 291.251 6.971 Q 290.643 6.713 289.942 6.713 L 289.942 6.713 L 289.942 6.713 Q 289.24 6.713 288.632 6.971 L 288.632 6.971 L 288.632 6.971 Q 288.023 7.228 287.567 7.684 L 287.567 7.684 L 287.567 7.684 Q 287.111 8.14 286.854 8.749 L 286.854 8.749 L 286.854 8.749 Q 286.596 9.357 286.596 10.058 L 286.596 10.058 L 286.596 34.012 L 279.883 34.012 L 279.883 10.058 L 279.883 10.058 Q 279.883 9.357 279.626 8.749 L 279.626 8.749 L 279.626 8.749 Q 279.368 8.14 278.912 7.684 L 278.912 7.684 L 278.912 7.684 Q 278.456 7.228 277.848 6.971 L 277.848 6.971 L 277.848 6.971 Q 277.24 6.713 276.538 6.713 L 276.538 6.713 L 276.538 6.713 Q 275.836 6.713 275.228 6.971 L 275.228 6.971 L 275.228 6.971 Q 274.62 7.228 274.164 7.684 L 274.164 7.684 L 274.164 7.684 Q 273.708 8.14 273.45 8.749 L 273.45 8.749 L 273.45 8.749 Q 273.193 9.357 273.193 10.058 L 273.193 10.058 L 273.193 34.012 L 266.48 34.012 L 266.48 10.058 L 266.48 10.058 Q 266.48 7.977 267.263 6.14 L 267.263 6.14 L 267.263 6.14 Q 268.047 4.304 269.415 2.936 L 269.415 2.936 L 269.415 2.936 Q 270.784 1.567 272.62 0.784 L 272.62 0.784 L 272.62 0.784 Q 274.456 0 276.538 0 L 276.538 0 L 276.538 0 Q 278.409 0 280.14 0.667 L 280.14 0.667 L 280.14 0.667 Q 281.871 1.333 283.251 2.596 L 283.251 2.596 L 283.251 2.596 Q 284.632 1.333 286.351 0.667 L 286.351 0.667 L 286.351 0.667 Q 288.07 0 289.942 0 L 289.942 0 L 289.942 0 Q 292.023 0 293.86 0.784 L 293.86 0.784 L 293.86 0.784 Q 295.696 1.567 297.064 2.936 L 297.064 2.936 L 297.064 2.936 Q 298.433 4.304 299.216 6.14 L 299.216 6.14 L 299.216 6.14 Q 300 7.977 300 10.058 L 300 10.058 Z "/>
</svg>
