<svg xmlns="http://www.w3.org/2000/svg" viewBox="0 0 450 450" width="450pt" height="450pt">
<path d=" M 260.098 294.946 L 329.902 294.946 L 329.902 189.966 L 329.902 189.966 Q 329.902 182.642 327.218 176.294 L 327.218 176.294 L 327.218 176.294 Q 324.533 169.946 319.773 165.186 L 319.773 165.186 L 319.773 165.186 Q 315.014 160.425 308.668 157.739 L 308.668 157.739 L 308.668 157.739 Q 302.322 155.054 295 155.054 L 295 155.054 L 295 155.054 Q 287.678 155.054 281.332 157.739 L 281.332 157.739 L 281.332 157.739 Q 274.986 160.425 270.227 165.186 L 270.227 165.186 L 270.227 165.186 Q 265.467 169.946 262.782 176.294 L 262.782 176.294 L 262.782 176.294 Q 260.098 182.642 260.098 189.966 L 260.098 189.966 L 260.098 294.946 L 260.098 294.946 Z  M 120 294.946 L 190.049 294.946 L 190.049 189.966 L 190.049 189.966 Q 190.049 182.642 187.364 176.294 L 187.364 176.294 L 187.364 176.294 Q 184.679 169.946 179.92 165.186 L 179.92 165.186 L 179.92 165.186 Q 175.16 160.425 168.692 157.739 L 168.692 157.739 L 168.692 157.739 Q 162.225 155.054 154.902 155.054 L 154.902 155.054 L 154.902 155.054 Q 147.58 155.054 141.234 157.739 L 141.234 157.739 L 141.234 157.739 Q 134.888 160.425 130.129 165.186 L 130.129 165.186 L 130.129 165.186 Q 125.37 169.946 122.685 176.294 L 122.685 176.294 L 122.685 176.294 Q 120 182.642 120 189.966 L 120 189.966 L 120 294.946 L 120 294.946 Z  M 295 84.985 L 295 84.985 L 295 84.985 Q 316.722 84.985 335.76 93.286 L 335.76 93.286 L 335.76 93.286 Q 354.798 101.587 369.076 115.869 L 369.076 115.869 L 369.076 115.869 Q 383.354 130.151 391.653 149.194 L 391.653 149.194 L 391.653 149.194 Q 399.951 168.237 399.951 189.966 L 399.951 189.966 L 399.951 365.015 L 49.951 365.015 L 49.951 189.966 L 49.951 189.966 Q 49.951 168.237 58.25 149.194 L 58.25 149.194 L 58.25 149.194 Q 66.548 130.151 80.826 115.869 L 80.826 115.869 L 80.826 115.869 Q 95.105 101.587 114.142 93.286 L 114.142 93.286 L 114.142 93.286 Q 133.18 84.985 154.902 84.985 L 154.902 84.985 L 154.902 84.985 Q 164.665 84.985 174.916 87.671 L 174.916 87.671 L 174.916 87.671 Q 185.167 90.356 194.686 95.239 L 194.686 95.239 L 194.686 95.239 Q 204.205 100.122 212.015 106.958 L 212.015 106.958 L 212.015 106.958 Q 219.826 113.794 224.951 122.095 L 224.951 122.095 L 224.951 122.095 Q 229.589 113.55 237.521 106.714 L 237.521 106.714 L 237.521 106.714 Q 245.453 99.878 254.972 94.995 L 254.972 94.995 L 254.972 94.995 Q 264.491 90.112 274.864 87.549 L 274.864 87.549 L 274.864 87.549 Q 285.237 84.985 295 84.985 L 295 84.985 Z  M 105.546 335.203 L 105.546 340.789 L 113.928 340.789 L 113.928 340.789 Q 114.513 340.789 115.019 340.574 L 115.019 340.574 L 115.019 340.574 Q 115.526 340.359 115.906 339.979 L 115.906 339.979 L 115.906 339.979 Q 116.286 339.598 116.501 339.09 L 116.501 339.09 L 116.501 339.09 Q 116.715 338.582 116.715 337.996 L 116.715 337.996 L 116.715 337.996 Q 116.715 337.41 116.501 336.902 L 116.501 336.902 L 116.501 336.902 Q 116.286 336.395 115.906 336.014 L 115.906 336.014 L 115.906 336.014 Q 115.526 335.633 115.019 335.418 L 115.019 335.418 L 115.019 335.418 Q 114.513 335.203 113.928 335.203 L 113.928 335.203 L 105.546 335.203 L 105.546 335.203 Z  M 105.546 323.992 L 105.546 329.598 L 113.928 329.598 L 113.928 329.598 Q 114.513 329.598 115.019 329.383 L 115.019 329.383 L 115.019 329.383 Q 115.526 329.168 115.906 328.787 L 115.906 328.787 L 115.906 328.787 Q 116.286 328.406 116.501 327.889 L 116.501 327.889 L 116.501 327.889 Q 116.715 327.371 116.715 326.785 L 116.715 326.785 L 116.715 326.785 Q 116.715 326.199 116.501 325.691 L 116.501 325.691 L 116.501 325.691 Q 116.286 325.184 115.906 324.803 L 115.906 324.803 L 115.906 324.803 Q 115.526 324.422 115.019 324.207 L 115.019 324.207 L 115.019 324.207 Q 114.513 323.992 113.928 323.992 L 113.928 323.992 L 105.546 323.992 L 105.546 323.992 Z  M 341.569 317.996 L 341.569 317.996 L 341.569 317.996 Q 343.304 317.996 344.824 318.826 L 344.824 318.826 L 344.824 318.826 Q 346.345 319.657 347.485 321.085 L 347.485 321.085 L 347.485 321.085 Q 348.626 322.513 349.288 324.418 L 349.288 324.418 L 349.288 324.418 Q 349.951 326.323 349.951 328.496 L 349.951 328.496 L 349.951 346.004 L 344.357 346.004 L 338.782 346.004 L 333.187 346.004 L 327.592 346.004 L 321.998 346.004 L 321.998 328.496 L 321.998 328.496 Q 321.998 326.323 322.661 324.418 L 322.661 324.418 L 322.661 324.418 Q 323.323 322.513 324.464 321.085 L 324.464 321.085 L 324.464 321.085 Q 325.604 319.657 327.125 318.826 L 327.125 318.826 L 327.125 318.826 Q 328.645 317.996 330.38 317.996 L 330.38 317.996 L 330.38 317.996 Q 331.16 317.996 331.978 318.265 L 331.978 318.265 L 331.978 318.265 Q 332.797 318.533 333.557 319.022 L 333.557 319.022 L 333.557 319.022 Q 334.318 319.51 334.941 320.194 L 334.941 320.194 L 334.941 320.194 Q 335.565 320.877 335.975 321.708 L 335.975 321.708 L 335.975 321.708 Q 336.345 320.853 336.978 320.169 L 336.978 320.169 L 336.978 320.169 Q 337.612 319.486 338.372 318.997 L 338.372 318.997 L 338.372 318.997 Q 339.132 318.509 339.961 318.252 L 339.961 318.252 L 339.961 318.252 Q 340.789 317.996 341.569 317.996 L 341.569 317.996 Z  M 338.782 346.004 L 344.357 346.004 L 344.357 328.496 L 344.357 328.496 Q 344.357 327.763 344.142 327.129 L 344.142 327.129 L 344.142 327.129 Q 343.928 326.494 343.548 326.018 L 343.548 326.018 L 343.548 326.018 Q 343.168 325.541 342.661 325.273 L 342.661 325.273 L 342.661 325.273 Q 342.154 325.004 341.569 325.004 L 341.569 325.004 L 341.569 325.004 Q 340.984 325.004 340.477 325.273 L 340.477 325.273 L 340.477 325.273 Q 339.971 325.541 339.591 326.018 L 339.591 326.018 L 339.591 326.018 Q 339.21 326.494 338.996 327.129 L 338.996 327.129 L 338.996 327.129 Q 338.782 327.763 338.782 328.496 L 338.782 328.496 L 338.782 346.004 L 338.782 346.004 Z  M 327.592 346.004 L 333.187 346.004 L 333.187 328.496 L 333.187 328.496 Q 333.187 327.763 332.973 327.129 L 332.973 327.129 L 332.973 327.129 Q 332.758 326.494 332.378 326.018 L 332.378 326.018 L 332.378 326.018 Q 331.998 325.541 331.481 325.273 L 331.481 325.273 L 331.481 325.273 Q 330.965 325.004 330.38 325.004 L 330.38 325.004 L 330.38 325.004 Q 329.795 325.004 329.288 325.273 L 329.288 325.273 L 329.288 325.273 Q 328.782 325.541 328.401 326.018 L 328.401 326.018 L 328.401 326.018 Q 328.021 326.494 327.807 327.129 L 327.807 327.129 L 327.807 327.129 Q 327.592 327.763 327.592 328.496 L 327.592 328.496 L 327.592 346.004 L 327.592 346.004 Z  M 131.803 335.203 L 142.992 335.203 L 142.992 329.598 L 142.992 329.598 Q 142.992 328.445 142.554 327.42 L 142.554 327.42 L 142.554 327.42 Q 142.115 326.395 141.355 325.633 L 141.355 325.633 L 141.355 325.633 Q 140.594 324.871 139.571 324.432 L 139.571 324.432 L 139.571 324.432 Q 138.548 323.992 137.398 323.992 L 137.398 323.992 L 137.398 323.992 Q 136.247 323.992 135.224 324.432 L 135.224 324.432 L 135.224 324.432 Q 134.201 324.871 133.44 325.633 L 133.44 325.633 L 133.44 325.633 Q 132.68 326.395 132.242 327.42 L 132.242 327.42 L 132.242 327.42 Q 131.803 328.445 131.803 329.598 L 131.803 329.598 L 131.803 335.203 L 131.803 335.203 Z  M 164.63 323.992 L 159.035 323.992 L 159.035 335.203 L 164.63 335.203 L 164.63 335.203 Q 165.78 335.203 166.793 334.764 L 166.793 334.764 L 166.793 334.764 Q 167.807 334.324 168.567 333.563 L 168.567 333.563 L 168.567 333.563 Q 169.327 332.801 169.766 331.775 L 169.766 331.775 L 169.766 331.775 Q 170.205 330.75 170.205 329.598 L 170.205 329.598 L 170.205 329.598 Q 170.205 328.445 169.766 327.42 L 169.766 327.42 L 169.766 327.42 Q 169.327 326.395 168.567 325.633 L 168.567 325.633 L 168.567 325.633 Q 167.807 324.871 166.793 324.432 L 166.793 324.432 L 166.793 324.432 Q 165.78 323.992 164.63 323.992 L 164.63 323.992 L 164.63 323.992 Z  M 185.058 335.203 L 185.058 340.789 L 193.44 340.789 L 193.44 340.789 Q 194.025 340.789 194.532 340.574 L 194.532 340.574 L 194.532 340.574 Q 195.039 340.359 195.419 339.979 L 195.419 339.979 L 195.419 339.979 Q 195.799 339.598 196.014 339.09 L 196.014 339.09 L 196.014 339.09 Q 196.228 338.582 196.228 337.996 L 196.228 337.996 L 196.228 337.996 Q 196.228 337.41 196.014 336.902 L 196.014 336.902 L 196.014 336.902 Q 195.799 336.395 195.419 336.014 L 195.419 336.014 L 195.419 336.014 Q 195.039 335.633 194.532 335.418 L 194.532 335.418 L 194.532 335.418 Q 194.025 335.203 193.44 335.203 L 193.44 335.203 L 185.058 335.203 L 185.058 335.203 Z  M 185.058 323.992 L 185.058 329.598 L 193.44 329.598 L 193.44 329.598 Q 194.025 329.598 194.532 329.383 L 194.532 329.383 L 194.532 329.383 Q 195.039 329.168 195.419 328.787 L 195.419 328.787 L 195.419 328.787 Q 195.799 328.406 196.014 327.889 L 196.014 327.889 L 196.014 327.889 Q 196.228 327.371 196.228 326.785 L 196.228 326.785 L 196.228 326.785 Q 196.228 326.199 196.014 325.691 L 196.014 325.691 L 196.014 325.691 Q 195.799 325.184 195.419 324.803 L 195.419 324.803 L 195.419 324.803 Q 195.039 324.422 194.532 324.207 L 194.532 324.207 L 194.532 324.207 Q 194.025 323.992 193.44 323.992 L 193.44 323.992 L 185.058 323.992 L 185.058 323.992 Z  M 211.316 335.203 L 222.505 335.203 L 222.505 329.598 L 222.505 329.598 Q 222.505 328.445 222.066 327.42 L 222.066 327.42 L 222.066 327.42 Q 221.628 326.395 220.867 325.633 L 220.867 325.633 L 220.867 325.633 Q 220.107 324.871 219.084 324.432 L 219.084 324.432 L 219.084 324.432 Q 218.06 323.992 216.91 323.992 L 216.91 323.992 L 216.91 323.992 Q 215.76 323.992 214.737 324.432 L 214.737 324.432 L 214.737 324.432 Q 213.713 324.871 212.953 325.633 L 212.953 325.633 L 212.953 325.633 Q 212.193 326.395 211.754 327.42 L 211.754 327.42 L 211.754 327.42 Q 211.316 328.445 211.316 329.598 L 211.316 329.598 L 211.316 335.203 L 211.316 335.203 Z  M 244.142 323.992 L 238.548 323.992 L 238.548 335.203 L 244.142 335.203 L 244.142 335.203 Q 245.292 335.203 246.306 334.764 L 246.306 334.764 L 246.306 334.764 Q 247.32 334.324 248.08 333.563 L 248.08 333.563 L 248.08 333.563 Q 248.84 332.801 249.279 331.775 L 249.279 331.775 L 249.279 331.775 Q 249.717 330.75 249.717 329.598 L 249.717 329.598 L 249.717 329.598 Q 249.717 328.445 249.279 327.42 L 249.279 327.42 L 249.279 327.42 Q 248.84 326.395 248.08 325.633 L 248.08 325.633 L 248.08 325.633 Q 247.32 324.871 246.306 324.432 L 246.306 324.432 L 246.306 324.432 Q 245.292 323.992 244.142 323.992 L 244.142 323.992 L 244.142 323.992 Z  M 264.571 318.387 L 264.571 346.395 L 258.977 346.395 L 258.977 318.387 L 264.571 318.387 L 264.571 318.387 Z  M 289.113 338.641 L 292.076 343.523 L 292.076 343.523 Q 290.127 345.203 287.709 346.102 L 287.709 346.102 L 287.709 346.102 Q 285.292 347 282.7 347 L 282.7 347 L 282.7 347 Q 280.711 347 278.869 346.482 L 278.869 346.482 L 278.869 346.482 Q 277.027 345.965 275.419 345.018 L 275.419 345.018 L 275.419 345.018 Q 273.811 344.07 272.485 342.742 L 272.485 342.742 L 272.485 342.742 Q 271.16 341.414 270.214 339.803 L 270.214 339.803 L 270.214 339.803 Q 269.269 338.191 268.752 336.346 L 268.752 336.346 L 268.752 336.346 Q 268.236 334.5 268.236 332.508 L 268.236 332.508 L 268.236 332.508 Q 268.236 330.516 268.752 328.66 L 268.752 328.66 L 268.752 328.66 Q 269.269 326.805 270.214 325.193 L 270.214 325.193 L 270.214 325.193 Q 271.16 323.582 272.485 322.254 L 272.485 322.254 L 272.485 322.254 Q 273.811 320.926 275.419 319.979 L 275.419 319.979 L 275.419 319.979 Q 277.027 319.031 278.869 318.514 L 278.869 318.514 L 278.869 318.514 Q 280.711 317.996 282.7 317.996 L 282.7 317.996 L 282.7 317.996 Q 285.292 317.996 287.709 318.885 L 287.709 318.885 L 287.709 318.885 Q 290.127 319.773 292.076 321.473 L 292.076 321.473 L 289.113 326.355 L 289.113 326.355 Q 287.885 325.027 286.208 324.314 L 286.208 324.314 L 286.208 324.314 Q 284.532 323.602 282.7 323.602 L 282.7 323.602 L 282.7 323.602 Q 280.848 323.602 279.23 324.305 L 279.23 324.305 L 279.23 324.305 Q 277.612 325.008 276.403 326.209 L 276.403 326.209 L 276.403 326.209 Q 275.195 327.41 274.493 329.041 L 274.493 329.041 L 274.493 329.041 Q 273.791 330.672 273.791 332.508 L 273.791 332.508 L 273.791 332.508 Q 273.791 334.344 274.493 335.955 L 274.493 335.955 L 274.493 335.955 Q 275.195 337.566 276.403 338.777 L 276.403 338.777 L 276.403 338.777 Q 277.612 339.988 279.23 340.691 L 279.23 340.691 L 279.23 340.691 Q 280.848 341.395 282.7 341.395 L 282.7 341.395 L 282.7 341.395 Q 284.532 341.395 286.208 340.682 L 286.208 340.682 L 286.208 340.682 Q 287.885 339.969 289.113 338.641 L 289.113 338.641 L 289.113 338.641 Z  M 317.359 318.387 L 317.359 335.203 L 317.359 335.203 Q 317.359 337.527 316.481 339.568 L 316.481 339.568 L 316.481 339.568 Q 315.604 341.609 314.084 343.123 L 314.084 343.123 L 314.084 343.123 Q 312.563 344.637 310.526 345.516 L 310.526 345.516 L 310.526 345.516 Q 308.489 346.395 306.169 346.395 L 306.169 346.395 L 306.169 346.395 Q 303.85 346.395 301.813 345.516 L 301.813 345.516 L 301.813 345.516 Q 299.776 344.637 298.265 343.123 L 298.265 343.123 L 298.265 343.123 Q 296.754 341.609 295.877 339.568 L 295.877 339.568 L 295.877 339.568 Q 295 337.527 295 335.203 L 295 335.203 L 295 318.387 L 300.575 318.387 L 300.575 335.203 L 300.575 335.203 Q 300.575 336.355 301.014 337.371 L 301.014 337.371 L 301.014 337.371 Q 301.452 338.387 302.212 339.148 L 302.212 339.148 L 302.212 339.148 Q 302.973 339.91 303.996 340.35 L 303.996 340.35 L 303.996 340.35 Q 305.019 340.789 306.169 340.789 L 306.169 340.789 L 306.169 340.789 Q 307.32 340.789 308.343 340.35 L 308.343 340.35 L 308.343 340.35 Q 309.366 339.91 310.127 339.148 L 310.127 339.148 L 310.127 339.148 Q 310.887 338.387 311.325 337.371 L 311.325 337.371 L 311.325 337.371 Q 311.764 336.355 311.764 335.203 L 311.764 335.203 L 311.764 318.387 L 317.359 318.387 L 317.359 318.387 Z  M 148.587 329.598 L 148.587 346.395 L 142.992 346.395 L 142.992 340.789 L 131.803 340.789 L 131.803 346.395 L 126.228 346.395 L 126.228 329.598 L 126.228 329.598 Q 126.228 327.273 127.105 325.232 L 127.105 325.232 L 127.105 325.232 Q 127.982 323.191 129.493 321.668 L 129.493 321.668 L 129.493 321.668 Q 131.004 320.145 133.041 319.266 L 133.041 319.266 L 133.041 319.266 Q 135.078 318.387 137.398 318.387 L 137.398 318.387 L 137.398 318.387 Q 139.717 318.387 141.754 319.266 L 141.754 319.266 L 141.754 319.266 Q 143.791 320.145 145.312 321.668 L 145.312 321.668 L 145.312 321.668 Q 146.832 323.191 147.709 325.232 L 147.709 325.232 L 147.709 325.232 Q 148.587 327.273 148.587 329.598 L 148.587 329.598 L 148.587 329.598 Z  M 159.035 340.789 L 159.035 346.395 L 153.44 346.395 L 153.44 318.387 L 164.63 318.387 L 164.63 318.387 Q 166.169 318.387 167.592 318.787 L 167.592 318.787 L 167.592 318.787 Q 169.015 319.188 170.253 319.92 L 170.253 319.92 L 170.253 319.92 Q 171.491 320.652 172.515 321.678 L 172.515 321.678 L 172.515 321.678 Q 173.538 322.703 174.269 323.953 L 174.269 323.953 L 174.269 323.953 Q 175 325.203 175.4 326.629 L 175.4 326.629 L 175.4 326.629 Q 175.799 328.055 175.799 329.598 L 175.799 329.598 L 175.799 329.598 Q 175.799 331.043 175.439 332.41 L 175.439 332.41 L 175.439 332.41 Q 175.078 333.777 174.405 335.008 L 174.405 335.008 L 174.405 335.008 Q 173.733 336.238 172.758 337.273 L 172.758 337.273 L 172.758 337.273 Q 171.784 338.309 170.575 339.07 L 170.575 339.07 L 173.674 346.395 L 167.729 346.395 L 165.292 340.75 L 159.035 340.789 L 159.035 340.789 Z  M 228.099 329.598 L 228.099 346.395 L 222.505 346.395 L 222.505 340.789 L 211.316 340.789 L 211.316 346.395 L 205.741 346.395 L 205.741 329.598 L 205.741 329.598 Q 205.741 327.273 206.618 325.232 L 206.618 325.232 L 206.618 325.232 Q 207.495 323.191 209.006 321.668 L 209.006 321.668 L 209.006 321.668 Q 210.516 320.145 212.554 319.266 L 212.554 319.266 L 212.554 319.266 Q 214.591 318.387 216.91 318.387 L 216.91 318.387 L 216.91 318.387 Q 219.23 318.387 221.267 319.266 L 221.267 319.266 L 221.267 319.266 Q 223.304 320.145 224.824 321.668 L 224.824 321.668 L 224.824 321.668 Q 226.345 323.191 227.222 325.232 L 227.222 325.232 L 227.222 325.232 Q 228.099 327.273 228.099 329.598 L 228.099 329.598 L 228.099 329.598 Z  M 238.548 340.789 L 238.548 346.395 L 232.953 346.395 L 232.953 318.387 L 244.142 318.387 L 244.142 318.387 Q 245.682 318.387 247.105 318.787 L 247.105 318.787 L 247.105 318.787 Q 248.528 319.188 249.766 319.92 L 249.766 319.92 L 249.766 319.92 Q 251.004 320.652 252.027 321.678 L 252.027 321.678 L 252.027 321.678 Q 253.051 322.703 253.782 323.953 L 253.782 323.953 L 253.782 323.953 Q 254.513 325.203 254.912 326.629 L 254.912 326.629 L 254.912 326.629 Q 255.312 328.055 255.312 329.598 L 255.312 329.598 L 255.312 329.598 Q 255.312 331.043 254.951 332.41 L 254.951 332.41 L 254.951 332.41 Q 254.591 333.777 253.918 335.008 L 253.918 335.008 L 253.918 335.008 Q 253.246 336.238 252.271 337.273 L 252.271 337.273 L 252.271 337.273 Q 251.296 338.309 250.088 339.07 L 250.088 339.07 L 253.187 346.395 L 247.242 346.395 L 244.805 340.75 L 238.548 340.789 L 238.548 340.789 Z  M 122.31 337.996 L 122.31 337.996 L 122.31 337.996 Q 122.31 339.734 121.647 341.258 L 121.647 341.258 L 121.647 341.258 Q 120.984 342.781 119.844 343.924 L 119.844 343.924 L 119.844 343.924 Q 118.704 345.066 117.183 345.73 L 117.183 345.73 L 117.183 345.73 Q 115.663 346.395 113.928 346.395 L 113.928 346.395 L 99.951 346.395 L 99.951 318.387 L 113.928 318.387 L 113.928 318.387 Q 115.663 318.387 117.183 319.051 L 117.183 319.051 L 117.183 319.051 Q 118.704 319.715 119.844 320.857 L 119.844 320.857 L 119.844 320.857 Q 120.984 322 121.647 323.523 L 121.647 323.523 L 121.647 323.523 Q 122.31 325.047 122.31 326.785 L 122.31 326.785 L 122.31 326.785 Q 122.31 327.566 122.095 328.387 L 122.095 328.387 L 122.095 328.387 Q 121.881 329.207 121.491 329.969 L 121.491 329.969 L 121.491 329.969 Q 121.101 330.73 120.555 331.355 L 120.555 331.355 L 120.555 331.355 Q 120.01 331.98 119.347 332.391 L 119.347 332.391 L 119.347 332.391 Q 120.029 332.762 120.575 333.396 L 120.575 333.396 L 120.575 333.396 Q 121.121 334.031 121.511 334.793 L 121.511 334.793 L 121.511 334.793 Q 121.9 335.555 122.105 336.385 L 122.105 336.385 L 122.105 336.385 Q 122.31 337.215 122.31 337.996 L 122.31 337.996 Z  M 201.823 337.996 L 201.823 337.996 L 201.823 337.996 Q 201.823 339.734 201.16 341.258 L 201.16 341.258 L 201.16 341.258 Q 200.497 342.781 199.357 343.924 L 199.357 343.924 L 199.357 343.924 Q 198.216 345.066 196.696 345.73 L 196.696 345.73 L 196.696 345.73 Q 195.175 346.395 193.44 346.395 L 193.44 346.395 L 179.464 346.395 L 179.464 318.387 L 193.44 318.387 L 193.44 318.387 Q 195.175 318.387 196.696 319.051 L 196.696 319.051 L 196.696 319.051 Q 198.216 319.715 199.357 320.857 L 199.357 320.857 L 199.357 320.857 Q 200.497 322 201.16 323.523 L 201.16 323.523 L 201.16 323.523 Q 201.823 325.047 201.823 326.785 L 201.823 326.785 L 201.823 326.785 Q 201.823 327.566 201.608 328.387 L 201.608 328.387 L 201.608 328.387 Q 201.394 329.207 201.004 329.969 L 201.004 329.969 L 201.004 329.969 Q 200.614 330.73 200.068 331.355 L 200.068 331.355 L 200.068 331.355 Q 199.522 331.98 198.86 332.391 L 198.86 332.391 L 198.86 332.391 Q 199.542 332.762 200.088 333.396 L 200.088 333.396 L 200.088 333.396 Q 200.633 334.031 201.023 334.793 L 201.023 334.793 L 201.023 334.793 Q 201.413 335.555 201.618 336.385 L 201.618 336.385 L 201.618 336.385 Q 201.823 337.215 201.823 337.996 L 201.823 337.996 Z "
    fill-rule="evenodd" fill="currentColor"/>
</svg>
