<svg xmlns="http://www.w3.org/2000/svg" viewBox="0 0 350.098 280.029">
    <path d=" M 245.117 0 L 245.117 0 L 245.117 0 Q 266.846 0 285.889 8.301 L 285.889 8.301 L 285.889 8.301 Q 304.932 16.602 319.214 30.884 L 319.214 30.884 L 319.214 30.884 Q 333.496 45.166 341.797 64.209 L 341.797 64.209 L 341.797 64.209 Q 350.098 83.252 350.098 104.98 L 350.098 104.98 L 350.098 280.029 L 0 280.029 L 0 104.98 L 0 104.98 Q 0 83.252 8.301 64.209 L 8.301 64.209 L 8.301 64.209 Q 16.602 45.166 30.884 30.884 L 30.884 30.884 L 30.884 30.884 Q 45.166 16.602 64.209 8.301 L 64.209 8.301 L 64.209 8.301 Q 83.252 0 104.98 0 L 104.98 0 L 104.98 0 Q 114.746 0 125 2.686 L 125 2.686 L 125 2.686 Q 135.254 5.371 144.775 10.254 L 144.775 10.254 L 144.775 10.254 Q 154.297 15.137 162.109 21.973 L 162.109 21.973 L 162.109 21.973 Q 169.922 28.809 175.049 37.109 L 175.049 37.109 L 175.049 37.109 Q 179.688 28.564 187.622 21.729 L 187.622 21.729 L 187.622 21.729 Q 195.557 14.893 205.078 10.01 L 205.078 10.01 L 205.078 10.01 Q 214.6 5.127 224.976 2.563 L 224.976 2.563 L 224.976 2.563 Q 235.352 0 245.117 0 Z  M 210.205 209.961 L 280.029 209.961 L 280.029 104.98 L 280.029 104.98 Q 280.029 97.656 277.344 91.309 L 277.344 91.309 L 277.344 91.309 Q 274.658 84.961 269.897 80.2 L 269.897 80.2 L 269.897 80.2 Q 265.137 75.439 258.789 72.754 L 258.789 72.754 L 258.789 72.754 Q 252.441 70.068 245.117 70.068 L 245.117 70.068 L 245.117 70.068 Q 237.793 70.068 231.445 72.754 L 231.445 72.754 L 231.445 72.754 Q 225.098 75.439 220.337 80.2 L 220.337 80.2 L 220.337 80.2 Q 215.576 84.961 212.891 91.309 L 212.891 91.309 L 212.891 91.309 Q 210.205 97.656 210.205 104.98 L 210.205 104.98 L 210.205 209.961 Z  M 70.068 209.961 L 140.137 209.961 L 140.137 104.98 L 140.137 104.98 Q 140.137 97.656 137.451 91.309 L 137.451 91.309 L 137.451 91.309 Q 134.766 84.961 130.005 80.2 L 130.005 80.2 L 130.005 80.2 Q 125.244 75.439 118.774 72.754 L 118.774 72.754 L 118.774 72.754 Q 112.305 70.068 104.98 70.068 L 104.98 70.068 L 104.98 70.068 Q 97.656 70.068 91.309 72.754 L 91.309 72.754 L 91.309 72.754 Q 84.961 75.439 80.2 80.2 L 80.2 80.2 L 80.2 80.2 Q 75.439 84.961 72.754 91.309 L 72.754 91.309 L 72.754 91.309 Q 70.068 97.656 70.068 104.98 L 70.068 104.98 L 70.068 209.961 Z  M 72.207 253.496 L 72.207 253.496 L 72.207 253.496 Q 72.207 255.234 71.543 256.758 L 71.543 256.758 L 71.543 256.758 Q 70.879 258.281 69.736 259.424 L 69.736 259.424 L 69.736 259.424 Q 68.594 260.566 67.07 261.23 L 67.07 261.23 L 67.07 261.23 Q 65.547 261.895 63.809 261.895 L 63.809 261.895 L 49.805 261.895 L 49.805 233.887 L 63.809 233.887 L 63.809 233.887 Q 65.547 233.887 67.07 234.551 L 67.07 234.551 L 67.07 234.551 Q 68.594 235.215 69.736 236.357 L 69.736 236.357 L 69.736 236.357 Q 70.879 237.5 71.543 239.023 L 71.543 239.023 L 71.543 239.023 Q 72.207 240.547 72.207 242.285 L 72.207 242.285 L 72.207 242.285 Q 72.207 243.066 71.992 243.887 L 71.992 243.887 L 71.992 243.887 Q 71.777 244.707 71.387 245.469 L 71.387 245.469 L 71.387 245.469 Q 70.996 246.23 70.449 246.855 L 70.449 246.855 L 70.449 246.855 Q 69.902 247.48 69.238 247.891 L 69.238 247.891 L 69.238 247.891 Q 69.922 248.262 70.469 248.896 L 70.469 248.896 L 70.469 248.896 Q 71.016 249.531 71.406 250.293 L 71.406 250.293 L 71.406 250.293 Q 71.797 251.055 72.002 251.885 L 72.002 251.885 L 72.002 251.885 Q 72.207 252.715 72.207 253.496 Z  M 55.41 250.703 L 55.41 256.289 L 63.809 256.289 L 63.809 256.289 Q 64.395 256.289 64.902 256.074 L 64.902 256.074 L 64.902 256.074 Q 65.41 255.859 65.791 255.479 L 65.791 255.479 L 65.791 255.479 Q 66.172 255.098 66.387 254.59 L 66.387 254.59 L 66.387 254.59 Q 66.602 254.082 66.602 253.496 L 66.602 253.496 L 66.602 253.496 Q 66.602 252.91 66.387 252.402 L 66.387 252.402 L 66.387 252.402 Q 66.172 251.895 65.791 251.514 L 65.791 251.514 L 65.791 251.514 Q 65.41 251.133 64.902 250.918 L 64.902 250.918 L 64.902 250.918 Q 64.395 250.703 63.809 250.703 L 63.809 250.703 L 55.41 250.703 Z  M 55.41 239.492 L 55.41 245.098 L 63.809 245.098 L 63.809 245.098 Q 64.395 245.098 64.902 244.883 L 64.902 244.883 L 64.902 244.883 Q 65.41 244.668 65.791 244.287 L 65.791 244.287 L 65.791 244.287 Q 66.172 243.906 66.387 243.389 L 66.387 243.389 L 66.387 243.389 Q 66.602 242.871 66.602 242.285 L 66.602 242.285 L 66.602 242.285 Q 66.602 241.699 66.387 241.191 L 66.387 241.191 L 66.387 241.191 Q 66.172 240.684 65.791 240.303 L 65.791 240.303 L 65.791 240.303 Q 65.41 239.922 64.902 239.707 L 64.902 239.707 L 64.902 239.707 Q 64.395 239.492 63.809 239.492 L 63.809 239.492 L 55.41 239.492 Z  M 81.719 250.703 L 92.93 250.703 L 92.93 245.098 L 92.93 245.098 Q 92.93 243.945 92.49 242.92 L 92.49 242.92 L 92.49 242.92 Q 92.051 241.895 91.289 241.133 L 91.289 241.133 L 91.289 241.133 Q 90.527 240.371 89.502 239.932 L 89.502 239.932 L 89.502 239.932 Q 88.477 239.492 87.324 239.492 L 87.324 239.492 L 87.324 239.492 Q 86.172 239.492 85.146 239.932 L 85.146 239.932 L 85.146 239.932 Q 84.121 240.371 83.359 241.133 L 83.359 241.133 L 83.359 241.133 Q 82.598 241.895 82.158 242.92 L 82.158 242.92 L 82.158 242.92 Q 81.719 243.945 81.719 245.098 L 81.719 245.098 L 81.719 250.703 Z  M 98.535 245.098 L 98.535 261.895 L 92.93 261.895 L 92.93 256.289 L 81.719 256.289 L 81.719 261.895 L 76.133 261.895 L 76.133 245.098 L 76.133 245.098 Q 76.133 242.773 77.012 240.732 L 77.012 240.732 L 77.012 240.732 Q 77.891 238.691 79.404 237.168 L 79.404 237.168 L 79.404 237.168 Q 80.918 235.645 82.959 234.766 L 82.959 234.766 L 82.959 234.766 Q 85 233.887 87.324 233.887 L 87.324 233.887 L 87.324 233.887 Q 89.648 233.887 91.689 234.766 L 91.689 234.766 L 91.689 234.766 Q 93.73 235.645 95.254 237.168 L 95.254 237.168 L 95.254 237.168 Q 96.777 238.691 97.656 240.732 L 97.656 240.732 L 97.656 240.732 Q 98.535 242.773 98.535 245.098 L 98.535 245.098 Z  M 114.609 239.492 L 109.004 239.492 L 109.004 250.703 L 114.609 250.703 L 114.609 250.703 Q 115.762 250.703 116.777 250.264 L 116.777 250.264 L 116.777 250.264 Q 117.793 249.824 118.555 249.063 L 118.555 249.063 L 118.555 249.063 Q 119.316 248.301 119.756 247.275 L 119.756 247.275 L 119.756 247.275 Q 120.195 246.25 120.195 245.098 L 120.195 245.098 L 120.195 245.098 Q 120.195 243.945 119.756 242.92 L 119.756 242.92 L 119.756 242.92 Q 119.316 241.895 118.555 241.133 L 118.555 241.133 L 118.555 241.133 Q 117.793 240.371 116.777 239.932 L 116.777 239.932 L 116.777 239.932 Q 115.762 239.492 114.609 239.492 L 114.609 239.492 Z  M 109.004 256.289 L 109.004 261.895 L 103.398 261.895 L 103.398 233.887 L 114.609 233.887 L 114.609 233.887 Q 116.152 233.887 117.578 234.287 L 117.578 234.287 L 117.578 234.287 Q 119.004 234.688 120.244 235.42 L 120.244 235.42 L 120.244 235.42 Q 121.484 236.152 122.51 237.178 L 122.51 237.178 L 122.51 237.178 Q 123.535 238.203 124.268 239.453 L 124.268 239.453 L 124.268 239.453 Q 125 240.703 125.4 242.129 L 125.4 242.129 L 125.4 242.129 Q 125.801 243.555 125.801 245.098 L 125.801 245.098 L 125.801 245.098 Q 125.801 246.543 125.439 247.91 L 125.439 247.91 L 125.439 247.91 Q 125.078 249.277 124.404 250.508 L 124.404 250.508 L 124.404 250.508 Q 123.73 251.738 122.754 252.773 L 122.754 252.773 L 122.754 252.773 Q 121.777 253.809 120.566 254.57 L 120.566 254.57 L 123.672 261.895 L 117.715 261.895 L 115.273 256.25 L 109.004 256.289 Z  M 151.875 253.496 L 151.875 253.496 L 151.875 253.496 Q 151.875 255.234 151.211 256.758 L 151.211 256.758 L 151.211 256.758 Q 150.547 258.281 149.404 259.424 L 149.404 259.424 L 149.404 259.424 Q 148.262 260.566 146.738 261.23 L 146.738 261.23 L 146.738 261.23 Q 145.215 261.895 143.477 261.895 L 143.477 261.895 L 129.473 261.895 L 129.473 233.887 L 143.477 233.887 L 143.477 233.887 Q 145.215 233.887 146.738 234.551 L 146.738 234.551 L 146.738 234.551 Q 148.262 235.215 149.404 236.357 L 149.404 236.357 L 149.404 236.357 Q 150.547 237.5 151.211 239.023 L 151.211 239.023 L 151.211 239.023 Q 151.875 240.547 151.875 242.285 L 151.875 242.285 L 151.875 242.285 Q 151.875 243.066 151.66 243.887 L 151.66 243.887 L 151.66 243.887 Q 151.445 244.707 151.055 245.469 L 151.055 245.469 L 151.055 245.469 Q 150.664 246.23 150.117 246.855 L 150.117 246.855 L 150.117 246.855 Q 149.57 247.48 148.906 247.891 L 148.906 247.891 L 148.906 247.891 Q 149.59 248.262 150.137 248.896 L 150.137 248.896 L 150.137 248.896 Q 150.684 249.531 151.074 250.293 L 151.074 250.293 L 151.074 250.293 Q 151.465 251.055 151.67 251.885 L 151.67 251.885 L 151.67 251.885 Q 151.875 252.715 151.875 253.496 Z  M 135.078 250.703 L 135.078 256.289 L 143.477 256.289 L 143.477 256.289 Q 144.063 256.289 144.57 256.074 L 144.57 256.074 L 144.57 256.074 Q 145.078 255.859 145.459 255.479 L 145.459 255.479 L 145.459 255.479 Q 145.84 255.098 146.055 254.59 L 146.055 254.59 L 146.055 254.59 Q 146.27 254.082 146.27 253.496 L 146.27 253.496 L 146.27 253.496 Q 146.27 252.91 146.055 252.402 L 146.055 252.402 L 146.055 252.402 Q 145.84 251.895 145.459 251.514 L 145.459 251.514 L 145.459 251.514 Q 145.078 251.133 144.57 250.918 L 144.57 250.918 L 144.57 250.918 Q 144.063 250.703 143.477 250.703 L 143.477 250.703 L 135.078 250.703 Z  M 135.078 239.492 L 135.078 245.098 L 143.477 245.098 L 143.477 245.098 Q 144.063 245.098 144.57 244.883 L 144.57 244.883 L 144.57 244.883 Q 145.078 244.668 145.459 244.287 L 145.459 244.287 L 145.459 244.287 Q 145.84 243.906 146.055 243.389 L 146.055 243.389 L 146.055 243.389 Q 146.27 242.871 146.27 242.285 L 146.27 242.285 L 146.27 242.285 Q 146.27 241.699 146.055 241.191 L 146.055 241.191 L 146.055 241.191 Q 145.84 240.684 145.459 240.303 L 145.459 240.303 L 145.459 240.303 Q 145.078 239.922 144.57 239.707 L 144.57 239.707 L 144.57 239.707 Q 144.063 239.492 143.477 239.492 L 143.477 239.492 L 135.078 239.492 Z  M 161.387 250.703 L 172.598 250.703 L 172.598 245.098 L 172.598 245.098 Q 172.598 243.945 172.158 242.92 L 172.158 242.92 L 172.158 242.92 Q 171.719 241.895 170.957 241.133 L 170.957 241.133 L 170.957 241.133 Q 170.195 240.371 169.17 239.932 L 169.17 239.932 L 169.17 239.932 Q 168.145 239.492 166.992 239.492 L 166.992 239.492 L 166.992 239.492 Q 165.84 239.492 164.814 239.932 L 164.814 239.932 L 164.814 239.932 Q 163.789 240.371 163.027 241.133 L 163.027 241.133 L 163.027 241.133 Q 162.266 241.895 161.826 242.92 L 161.826 242.92 L 161.826 242.92 Q 161.387 243.945 161.387 245.098 L 161.387 245.098 L 161.387 250.703 Z  M 178.203 245.098 L 178.203 261.895 L 172.598 261.895 L 172.598 256.289 L 161.387 256.289 L 161.387 261.895 L 155.801 261.895 L 155.801 245.098 L 155.801 245.098 Q 155.801 242.773 156.68 240.732 L 156.68 240.732 L 156.68 240.732 Q 157.559 238.691 159.072 237.168 L 159.072 237.168 L 159.072 237.168 Q 160.586 235.645 162.627 234.766 L 162.627 234.766 L 162.627 234.766 Q 164.668 233.887 166.992 233.887 L 166.992 233.887 L 166.992 233.887 Q 169.316 233.887 171.357 234.766 L 171.357 234.766 L 171.357 234.766 Q 173.398 235.645 174.922 237.168 L 174.922 237.168 L 174.922 237.168 Q 176.445 238.691 177.324 240.732 L 177.324 240.732 L 177.324 240.732 Q 178.203 242.773 178.203 245.098 L 178.203 245.098 Z  M 194.277 239.492 L 188.672 239.492 L 188.672 250.703 L 194.277 250.703 L 194.277 250.703 Q 195.43 250.703 196.445 250.264 L 196.445 250.264 L 196.445 250.264 Q 197.461 249.824 198.223 249.063 L 198.223 249.063 L 198.223 249.063 Q 198.984 248.301 199.424 247.275 L 199.424 247.275 L 199.424 247.275 Q 199.863 246.25 199.863 245.098 L 199.863 245.098 L 199.863 245.098 Q 199.863 243.945 199.424 242.92 L 199.424 242.92 L 199.424 242.92 Q 198.984 241.895 198.223 241.133 L 198.223 241.133 L 198.223 241.133 Q 197.461 240.371 196.445 239.932 L 196.445 239.932 L 196.445 239.932 Q 195.43 239.492 194.277 239.492 L 194.277 239.492 Z  M 188.672 256.289 L 188.672 261.895 L 183.066 261.895 L 183.066 233.887 L 194.277 233.887 L 194.277 233.887 Q 195.82 233.887 197.246 234.287 L 197.246 234.287 L 197.246 234.287 Q 198.672 234.688 199.912 235.42 L 199.912 235.42 L 199.912 235.42 Q 201.152 236.152 202.178 237.178 L 202.178 237.178 L 202.178 237.178 Q 203.203 238.203 203.936 239.453 L 203.936 239.453 L 203.936 239.453 Q 204.668 240.703 205.068 242.129 L 205.068 242.129 L 205.068 242.129 Q 205.469 243.555 205.469 245.098 L 205.469 245.098 L 205.469 245.098 Q 205.469 246.543 205.107 247.91 L 205.107 247.91 L 205.107 247.91 Q 204.746 249.277 204.072 250.508 L 204.072 250.508 L 204.072 250.508 Q 203.398 251.738 202.422 252.773 L 202.422 252.773 L 202.422 252.773 Q 201.445 253.809 200.234 254.57 L 200.234 254.57 L 203.34 261.895 L 197.383 261.895 L 194.941 256.25 L 188.672 256.289 Z  M 214.746 233.887 L 214.746 261.895 L 209.141 261.895 L 209.141 233.887 L 214.746 233.887 Z  M 239.336 254.141 L 242.305 259.023 L 242.305 259.023 Q 240.352 260.703 237.93 261.602 L 237.93 261.602 L 237.93 261.602 Q 235.508 262.5 232.91 262.5 L 232.91 262.5 L 232.91 262.5 Q 230.918 262.5 229.072 261.982 L 229.072 261.982 L 229.072 261.982 Q 227.227 261.465 225.615 260.518 L 225.615 260.518 L 225.615 260.518 Q 224.004 259.57 222.676 258.242 L 222.676 258.242 L 222.676 258.242 Q 221.348 256.914 220.4 255.303 L 220.4 255.303 L 220.4 255.303 Q 219.453 253.691 218.936 251.846 L 218.936 251.846 L 218.936 251.846 Q 218.418 250 218.418 248.008 L 218.418 248.008 L 218.418 248.008 Q 218.418 246.016 218.936 244.16 L 218.936 244.16 L 218.936 244.16 Q 219.453 242.305 220.4 240.693 L 220.4 240.693 L 220.4 240.693 Q 221.348 239.082 222.676 237.754 L 222.676 237.754 L 222.676 237.754 Q 224.004 236.426 225.615 235.479 L 225.615 235.479 L 225.615 235.479 Q 227.227 234.531 229.072 234.014 L 229.072 234.014 L 229.072 234.014 Q 230.918 233.496 232.91 233.496 L 232.91 233.496 L 232.91 233.496 Q 235.508 233.496 237.93 234.385 L 237.93 234.385 L 237.93 234.385 Q 240.352 235.273 242.305 236.973 L 242.305 236.973 L 239.336 241.855 L 239.336 241.855 Q 238.105 240.527 236.426 239.814 L 236.426 239.814 L 236.426 239.814 Q 234.746 239.102 232.91 239.102 L 232.91 239.102 L 232.91 239.102 Q 231.055 239.102 229.434 239.805 L 229.434 239.805 L 229.434 239.805 Q 227.813 240.508 226.602 241.709 L 226.602 241.709 L 226.602 241.709 Q 225.391 242.91 224.688 244.541 L 224.688 244.541 L 224.688 244.541 Q 223.984 246.172 223.984 248.008 L 223.984 248.008 L 223.984 248.008 Q 223.984 249.844 224.688 251.455 L 224.688 251.455 L 224.688 251.455 Q 225.391 253.066 226.602 254.277 L 226.602 254.277 L 226.602 254.277 Q 227.813 255.488 229.434 256.191 L 229.434 256.191 L 229.434 256.191 Q 231.055 256.895 232.91 256.895 L 232.91 256.895 L 232.91 256.895 Q 234.746 256.895 236.426 256.182 L 236.426 256.182 L 236.426 256.182 Q 238.105 255.469 239.336 254.141 L 239.336 254.141 Z  M 267.637 233.887 L 267.637 250.703 L 267.637 250.703 Q 267.637 253.027 266.758 255.068 L 266.758 255.068 L 266.758 255.068 Q 265.879 257.109 264.355 258.623 L 264.355 258.623 L 264.355 258.623 Q 262.832 260.137 260.791 261.016 L 260.791 261.016 L 260.791 261.016 Q 258.75 261.895 256.426 261.895 L 256.426 261.895 L 256.426 261.895 Q 254.102 261.895 252.061 261.016 L 252.061 261.016 L 252.061 261.016 Q 250.02 260.137 248.506 258.623 L 248.506 258.623 L 248.506 258.623 Q 246.992 257.109 246.113 255.068 L 246.113 255.068 L 246.113 255.068 Q 245.234 253.027 245.234 250.703 L 245.234 250.703 L 245.234 233.887 L 250.82 233.887 L 250.82 250.703 L 250.82 250.703 Q 250.82 251.855 251.26 252.871 L 251.26 252.871 L 251.26 252.871 Q 251.699 253.887 252.461 254.648 L 252.461 254.648 L 252.461 254.648 Q 253.223 255.41 254.248 255.85 L 254.248 255.85 L 254.248 255.85 Q 255.273 256.289 256.426 256.289 L 256.426 256.289 L 256.426 256.289 Q 257.578 256.289 258.604 255.85 L 258.604 255.85 L 258.604 255.85 Q 259.629 255.41 260.391 254.648 L 260.391 254.648 L 260.391 254.648 Q 261.152 253.887 261.592 252.871 L 261.592 252.871 L 261.592 252.871 Q 262.031 251.855 262.031 250.703 L 262.031 250.703 L 262.031 233.887 L 267.637 233.887 Z  M 300.293 241.895 L 300.293 261.895 L 294.707 261.895 L 294.707 241.895 L 294.707 241.895 Q 294.707 241.309 294.482 240.801 L 294.482 240.801 L 294.482 240.801 Q 294.258 240.293 293.877 239.912 L 293.877 239.912 L 293.877 239.912 Q 293.496 239.531 292.988 239.316 L 292.988 239.316 L 292.988 239.316 Q 292.48 239.102 291.895 239.102 L 291.895 239.102 L 291.895 239.102 Q 291.309 239.102 290.801 239.316 L 290.801 239.316 L 290.801 239.316 Q 290.293 239.531 289.912 239.912 L 289.912 239.912 L 289.912 239.912 Q 289.531 240.293 289.316 240.801 L 289.316 240.801 L 289.316 240.801 Q 289.102 241.309 289.102 241.895 L 289.102 241.895 L 289.102 261.895 L 283.496 261.895 L 283.496 241.895 L 283.496 241.895 Q 283.496 241.309 283.281 240.801 L 283.281 240.801 L 283.281 240.801 Q 283.066 240.293 282.686 239.912 L 282.686 239.912 L 282.686 239.912 Q 282.305 239.531 281.797 239.316 L 281.797 239.316 L 281.797 239.316 Q 281.289 239.102 280.703 239.102 L 280.703 239.102 L 280.703 239.102 Q 280.117 239.102 279.609 239.316 L 279.609 239.316 L 279.609 239.316 Q 279.102 239.531 278.721 239.912 L 278.721 239.912 L 278.721 239.912 Q 278.34 240.293 278.125 240.801 L 278.125 240.801 L 278.125 240.801 Q 277.91 241.309 277.91 241.895 L 277.91 241.895 L 277.91 261.895 L 272.305 261.895 L 272.305 241.895 L 272.305 241.895 Q 272.305 240.156 272.959 238.623 L 272.959 238.623 L 272.959 238.623 Q 273.613 237.09 274.756 235.947 L 274.756 235.947 L 274.756 235.947 Q 275.898 234.805 277.432 234.15 L 277.432 234.15 L 277.432 234.15 Q 278.965 233.496 280.703 233.496 L 280.703 233.496 L 280.703 233.496 Q 282.266 233.496 283.711 234.053 L 283.711 234.053 L 283.711 234.053 Q 285.156 234.609 286.309 235.664 L 286.309 235.664 L 286.309 235.664 Q 287.461 234.609 288.896 234.053 L 288.896 234.053 L 288.896 234.053 Q 290.332 233.496 291.895 233.496 L 291.895 233.496 L 291.895 233.496 Q 293.633 233.496 295.166 234.15 L 295.166 234.15 L 295.166 234.15 Q 296.699 234.805 297.842 235.947 L 297.842 235.947 L 297.842 235.947 Q 298.984 237.09 299.639 238.623 L 299.639 238.623 L 299.639 238.623 Q 300.293 240.156 300.293 241.895 L 300.293 241.895 Z "
          fill-rule="evenodd" fill="{{ include.color | defaults: rgb(0,0,0}}"/>
</svg>
